<svg width="80" height="81" viewBox="0 0 80 81" fill="none" xmlns="http://www.w3.org/2000/svg">
<path d="M7.13321 54.5223C6.27137 54.5223 5.53734 53.864 5.45999 52.9887C5.42636 52.6103 5.38011 52.2202 5.33471 51.8225C5.1018 49.8289 4.81088 47.3477 5.91319 45.0522C7.23326 42.3011 10.8883 42.3692 12.8398 42.8443C13.7428 43.0637 14.2961 43.9726 14.0775 44.8748C13.8589 45.7762 12.9508 46.3269 12.052 46.1142C11.1649 45.904 9.28484 45.8014 8.94516 46.5085C8.26494 47.9253 8.47346 49.7078 8.6761 51.4315C8.72655 51.862 8.77531 52.2832 8.81147 52.6927C8.89387 53.6176 8.20945 54.4332 7.28455 54.5156C7.23242 54.5198 7.18197 54.5223 7.13321 54.5223Z" fill="#05CF9A"/>
<path d="M13.1216 51.8746C12.2589 51.8746 11.5249 51.2146 11.4484 50.3393C11.4147 49.9584 11.3685 49.5649 11.3222 49.1646C11.0902 47.1744 10.8009 44.6974 11.9016 42.4045C13.2233 39.6559 16.8783 39.7232 18.8282 40.1957C19.7304 40.4143 20.2853 41.3232 20.0667 42.2254C19.8489 43.1259 18.9442 43.6783 18.0412 43.4656C17.1558 43.2571 15.2724 43.1545 14.9335 43.8625C14.2541 45.2759 14.4618 47.055 14.6636 48.7754C14.7141 49.2101 14.7628 49.6347 14.799 50.0483C14.8806 50.9741 14.1953 51.7888 13.2704 51.8695C13.2199 51.8729 13.1695 51.8746 13.1216 51.8746Z" fill="#05CF9A"/>
<path d="M8.88656 80.1713C8.17691 80.1713 7.51687 79.719 7.28733 79.0077C6.83329 77.6086 6.25145 76.1018 6.04125 75.7831C5.96473 75.6797 5.6385 75.3476 5.37532 75.0811C4.30161 73.9897 2.678 72.34 2.10877 70.5112C1.57485 68.8002 -1.09473 55.6045 0.503655 49.9979C0.947604 48.4256 2.00451 47.2888 3.47929 46.8029C4.77414 46.3757 6.5306 46.8373 7.03509 46.9878C7.92551 47.2535 8.43168 48.1902 8.16682 49.0798C7.90197 49.971 6.96278 50.4772 6.07488 50.2115C5.51406 50.0475 4.75733 49.9467 4.51601 50.0021C4.37055 50.0509 3.94342 50.1913 3.7391 50.9161C2.53001 55.1588 4.62448 67.2808 5.31899 69.5124C5.64607 70.5625 6.97623 71.9137 7.7708 72.7217C8.23745 73.1951 8.57462 73.5382 8.80416 73.8678C9.40366 74.7346 10.1797 77.0259 10.4849 77.9709C10.7717 78.8546 10.2874 79.8031 9.40366 80.0889C9.23213 80.1444 9.05808 80.1713 8.88656 80.1713Z" fill="#05CF9A"/>
<path d="M29.6198 61.7576C28.8387 61.7576 28.1383 61.2111 27.9743 60.4156C27.5733 58.4725 21.543 31.2899 20.5794 26.9479C20.4196 26.9093 20.1615 26.8849 19.789 26.9303C19.5713 26.9563 19.2829 27.3776 19.1197 27.7248C19.3409 30.1304 20.5357 43.1184 21.0898 47.7311C21.2008 48.6535 20.5432 49.4901 19.6209 49.6011C18.7086 49.7113 17.8619 49.0554 17.7509 48.1322C17.1363 43.0184 15.7489 27.798 15.7355 27.6458C15.717 27.4306 15.738 27.2145 15.8002 27.0085C15.8952 26.6915 16.8067 23.9017 19.3905 23.5914C22.3771 23.2341 23.4483 24.9821 23.5601 25.1831C23.6408 25.326 23.6988 25.4799 23.7341 25.6396C24.0242 26.9446 30.8306 57.6115 31.2695 59.7371C31.457 60.6469 30.8718 61.5365 29.962 61.724C29.846 61.7475 29.7325 61.7576 29.6198 61.7576Z" fill="#05CF9A"/>
<path d="M28.1424 77.9272C27.5143 77.9272 26.9106 77.5732 26.6222 76.967C26.2236 76.1287 26.5801 75.1256 27.4193 74.7262C29.7517 73.618 31.1516 70.84 31.4863 69.35C31.5451 69.0827 31.5863 68.8161 31.6292 68.5462C31.8537 67.1219 32.132 65.3486 34.419 62.5184C37.3198 58.929 40.1946 58.2109 41.576 57.8654C42.5421 57.6224 43.6074 57.8738 44.6383 58.1159C44.8846 58.174 45.2209 58.253 45.5169 58.3085C45.4631 57.8763 45.1654 57.4273 44.2801 56.6462C42.8028 55.3421 39.0157 56.0728 37.1575 57.128C32.639 59.6958 29.6415 58.5818 27.9212 57.1944C27.199 56.6117 27.0855 55.5523 27.6681 54.83C28.2517 54.1069 29.3094 53.9951 30.0325 54.577C31.3501 55.6414 33.1898 55.5153 35.4953 54.2045C37.6107 53.0013 43.3224 51.3138 46.5049 54.1246C48.2369 55.6507 49.2795 57.1877 48.7381 59.7244C48.5926 60.4055 48.2184 60.9545 47.6543 61.3119C46.5419 62.0181 45.1831 61.6995 43.8681 61.3909C43.4023 61.2808 42.6228 61.0941 42.3714 61.1328C41.2086 61.4245 39.2285 61.9198 37.0348 64.6322C35.3136 66.762 35.1371 67.882 34.9504 69.0684C34.8974 69.4089 34.8428 69.7427 34.7671 70.0832C34.1777 72.7116 32.079 76.2346 28.8621 77.7641C28.63 77.875 28.3845 77.9272 28.1424 77.9272Z" fill="#05CF9A"/>
<path d="M69.3146 37.5783C68.5141 37.5783 67.7574 37.4716 67.1604 37.3261C66.2574 37.1066 65.7041 36.1977 65.9227 35.2955C66.1413 34.395 67.0494 33.8426 67.9482 34.0562C68.8336 34.2655 70.7153 34.3681 71.055 33.6618C71.7353 32.2451 71.5267 30.4625 71.3241 28.7389C71.2736 28.3084 71.2249 27.8871 71.1887 27.4777C71.1063 26.5528 71.7907 25.7372 72.7156 25.6548C73.6439 25.5799 74.457 26.2568 74.5385 27.1817C74.5722 27.5601 74.6184 27.9502 74.6638 28.3479C74.8967 30.3415 75.1876 32.8227 74.0853 35.1181C73.1714 37.0276 71.1299 37.5783 69.3146 37.5783Z" fill="#05CF9A"/>
<path d="M63.3192 40.2269C62.5212 40.2269 61.7662 40.1201 61.1709 39.9755C60.2687 39.7568 59.7138 38.8479 59.9324 37.9457C60.1502 37.0452 61.0549 36.492 61.9579 36.7055C62.8433 36.9141 64.7275 37.0158 65.0655 36.3087C65.7449 34.8953 65.5372 33.1161 65.3354 31.3958C65.285 30.9611 65.2362 30.5365 65.2001 30.1228C65.1185 29.1971 65.8038 28.3823 66.7287 28.3016C67.651 28.2074 68.4691 28.9062 68.5499 29.8302C68.5835 30.2111 68.6297 30.6046 68.676 31.0048C68.9081 32.995 69.1973 35.4721 68.0967 37.765C67.1802 39.6761 65.1353 40.2269 63.3192 40.2269Z" fill="#05CF9A"/>
<path d="M75.2679 33.5449C74.2782 33.5449 73.3172 33.2884 72.964 33.1833C72.0736 32.9176 71.5674 31.981 71.8323 31.0914C72.0972 30.2001 73.0363 29.6956 73.9242 29.9597C74.4851 30.1236 75.2418 30.2254 75.4831 30.169C75.6286 30.1203 76.0557 29.9798 76.26 29.2551C77.4691 25.0123 75.3746 12.8903 74.6801 10.6588C74.353 9.60863 73.0229 8.25744 72.2283 7.44942C71.7617 6.97604 71.4245 6.63299 71.195 6.30339C70.5955 5.43651 69.8194 3.1453 69.5142 2.20023C69.2275 1.31653 69.7118 0.368096 70.5955 0.0822194C71.4817 -0.203657 72.4284 0.27981 72.7135 1.1635C73.1675 2.56262 73.7493 4.06935 73.9596 4.38802C74.0361 4.49144 74.3623 4.82356 74.6255 5.0901C75.6992 6.18147 77.3228 7.83115 77.892 9.65992C78.4251 11.371 81.0947 24.5667 79.4963 30.1732C79.0524 31.7455 77.9955 32.8823 76.5207 33.3683C76.1288 33.497 75.6958 33.5449 75.2679 33.5449Z" fill="#05CF9A"/>
<path d="M59.8336 56.6278C57.4322 56.6278 56.5409 55.1716 56.4392 54.9891C56.3585 54.8462 56.3005 54.6923 56.2652 54.5325C55.9751 53.2276 49.1687 22.5606 48.7298 20.4351C48.5423 19.5253 49.1275 18.6357 50.0373 18.4482C50.9479 18.2574 51.8366 18.8468 52.0241 19.7557C52.4252 21.6988 58.4555 48.8814 59.419 53.2234C59.5788 53.2621 59.8369 53.2865 60.2094 53.241C60.4272 53.215 60.7156 52.7937 60.8787 52.4465C60.6576 50.0409 59.4628 37.0529 58.9087 32.4402C58.7977 31.5178 59.4552 30.6812 60.3776 30.5702C61.2966 30.4609 62.1366 31.1167 62.2475 32.0391C62.8622 37.1529 64.2495 52.3733 64.263 52.5255C64.2815 52.7408 64.2604 52.9569 64.1982 53.1628C64.1032 53.4798 63.1918 56.2697 60.608 56.5799C60.3347 56.6127 60.0766 56.6278 59.8336 56.6278Z" fill="#05CF9A"/>
<path d="M38.1584 27.5794C36.4591 27.5794 34.7733 27.1767 33.4935 26.0466C31.7615 24.5205 30.7189 22.9835 31.2603 20.4468C31.4058 19.7658 31.78 19.2167 32.3441 18.8594C33.4565 18.1539 34.8153 18.4717 36.1303 18.7803C36.5953 18.8905 37.3781 19.078 37.627 19.0384C38.7898 18.7467 40.7699 18.2514 42.9636 15.539C44.6848 13.4092 44.8613 12.2892 45.048 11.1029C45.101 10.7623 45.1556 10.4285 45.2313 10.088C45.8207 7.45962 47.9194 3.93661 51.1363 2.40717C51.9738 2.00947 52.9777 2.36429 53.3771 3.20426C53.7756 4.04255 53.4191 5.04564 52.58 5.44503C50.2476 6.55322 48.8476 9.33126 48.513 10.8212C48.4541 11.0886 48.4129 11.3551 48.37 11.625C48.1455 13.0493 47.8672 14.8226 45.5802 17.6528C42.6794 21.2422 39.8047 21.9603 38.4232 22.3058C37.4563 22.548 36.3918 22.2974 35.361 22.0553C35.1146 21.9973 34.7783 21.9182 34.4823 21.8627C34.5361 22.2949 34.8338 22.7439 35.7192 23.525C37.1982 24.8291 40.9843 24.1001 42.8417 23.0432C47.3611 20.4754 50.3577 21.5895 52.078 22.9768C52.8003 23.5595 52.9138 24.6189 52.3311 25.3412C51.7467 26.0651 50.6898 26.1753 49.9667 25.5943C48.65 24.5298 46.8095 24.6568 44.504 25.9667C43.2377 26.6856 40.6859 27.5794 38.1584 27.5794Z" fill="#05CF9A"/>
</svg>
