<svg width="15" height="17" viewBox="0 0 15 17" fill="none" xmlns="http://www.w3.org/2000/svg">
<path d="M7.63926 0.0654297C2.03926 0.0654297 4.73926 7.36543 4.73926 7.36543C5.33926 8.36543 6.13926 8.16543 6.13926 8.86543C6.13926 9.46543 5.43926 9.66543 4.73926 9.76543C3.63926 9.76543 2.63926 9.56543 1.63926 11.3654C1.03926 12.4654 0.739258 16.0654 0.739258 16.0654H14.4393C14.4393 16.0654 14.1393 12.4654 13.6393 11.3654C12.6393 9.46543 11.6393 9.76543 10.5393 9.66543C9.83926 9.56543 9.13926 9.36543 9.13926 8.76543C9.13926 8.16543 9.93926 8.36543 10.5393 7.26543C10.5393 7.36543 13.2393 0.0654297 7.63926 0.0654297V0.0654297Z" fill="#F3F3F3"/>
</svg>
