<svg width="17" height="17" viewBox="0 0 17 17" fill="none" xmlns="http://www.w3.org/2000/svg">
<path d="M12.9411 10.1695C11.8411 10.0695 11.2411 11.5695 10.4411 11.9695C9.1411 12.6695 6.7411 10.1695 6.7411 10.1695C6.7411 10.1695 4.2411 7.76952 4.8411 6.46952C5.3411 5.66952 6.8411 5.06952 6.7411 3.96952C6.6411 2.96952 4.4411 -0.630478 3.3411 0.369522C0.941102 2.56952 0.741102 3.46952 0.741102 5.26952C0.641102 8.36952 4.6411 12.2695 4.6411 12.2695C5.0411 12.6695 8.5411 16.2695 11.6411 16.1695C13.4411 16.1695 14.3411 15.9695 16.5411 13.5695C17.5411 12.4695 14.0411 10.2695 12.9411 10.1695Z" fill="#F3F3F3"/>
</svg>
